<?xml version="1.0" encoding="iso-8859-1"?>
<!-- Generator: Adobe Illustrator 19.0.0, SVG Export Plug-In . SVG Version: 6.00 Build 0)  -->
<svg version="1.1" id="Layer_1" xmlns="http://www.w3.org/2000/svg" xmlns:xlink="http://www.w3.org/1999/xlink" x="0px" y="0px"
	 viewBox="0 0 512 512" style="enable-background:new 0 0 512 512;" xml:space="preserve">
<circle style="fill:#F4E3C3;" cx="256" cy="256" r="256"/>
<path style="fill:#FED8B2;" d="M504.594,317.302l-124.142-124.14l-1.029,2.774l-55.867-55.868l-84.795,122.828L131.555,396.067
	l115.771,115.771c2.881,0.097,5.77,0.162,8.675,0.162C376.253,512,477.122,429.078,504.594,317.302z"/>
<path style="fill:#C1321F;" d="M356.023,323.663h-36.49c-20.594,0-37.35-16.756-37.35-37.352v-64.934
	c0-20.596,16.756-37.352,37.35-37.352h36.49c20.596,0,37.352,16.756,37.352,37.352v64.934
	C393.375,306.907,376.618,323.663,356.023,323.663z M319.533,209.886c-6.337,0-11.492,5.156-11.492,11.493v64.934
	c0,6.337,5.154,11.493,11.492,11.493h36.49c6.337,0,11.493-5.156,11.493-11.493v-64.934c0-6.337-5.156-11.493-11.493-11.493
	L319.533,209.886L319.533,209.886z"/>
<polygon style="fill:#FC6F58;" points="228.417,140.067 131.556,140.067 131.556,396.067 228.417,396.067 323.556,396.067 
	323.556,140.067 "/>
<rect x="228.417" y="140.067" style="fill:#F1543F;" width="95.142" height="256"/>
<g>
	<polygon style="fill:#324A5E;" points="193.741,314.716 147.089,268.067 193.741,221.418 204.71,232.391 169.032,268.067 
		204.71,303.745 	"/>
	<polygon style="fill:#324A5E;" points="262.016,314.716 251.047,303.745 286.725,268.067 251.047,232.391 262.016,221.418 
		308.669,268.067 	"/>
</g>
<polygon style="fill:#2B3B4E;" points="308.669,268.067 262.016,221.418 254.852,228.586 254.852,236.194 286.725,268.067 
	254.852,299.941 254.852,307.55 262.016,314.716 "/>
<g>
	
		<rect x="218.895" y="222.961" transform="matrix(-0.9716 -0.2367 0.2367 -0.9716 383.4143 582.1659)" style="fill:#324A5E;" width="15.515" height="90.213"/>
	<polygon style="fill:#324A5E;" points="208.455,310.058 223.529,313.73 228.417,293.657 228.417,228.104 	"/>
</g>
<polygon style="fill:#2B3B4E;" points="229.807,222.405 228.417,228.104 228.417,293.657 244.881,226.076 "/>
<g>
</g>
<g>
</g>
<g>
</g>
<g>
</g>
<g>
</g>
<g>
</g>
<g>
</g>
<g>
</g>
<g>
</g>
<g>
</g>
<g>
</g>
<g>
</g>
<g>
</g>
<g>
</g>
<g>
</g>
</svg>
